<svg xmlns="http://www.w3.org/2000/svg" version="1.0" width="512.000000pt" height="512.000000pt" viewBox="0 0 512.000000 512.000000" preserveAspectRatio="xMidYMid meet">

<g transform="translate(0.000000,512.000000) scale(0.100000,-0.100000)" fill="currentColor" stroke="none">
<path d="M1065 4935 l-25 -24 0 -256 0 -255 -255 0 -256 0 -24 -25 c-25 -24 -25 -24 -25 -240 l0 -215 -135 0 c-131 0 -137 -1 -160 -25 l-25 -24 0 -1591 0 -1591 25 -24 24 -25 653 0 652 0 166 -165 c149 -147 170 -165 200 -165 29 0 48 15 157 122 l123 122 0 -172 c0 -170 0 -173 25 -197 l24 -25 351 0 351 0 24 25 c25 24 25 27 25 197 l0 172 123 -122 c109 -107 128 -122 157 -122 30 0 51 18 200 165 l166 165 652 0 653 0 24 25 25 24 0 1271 0 1271 -25 24 c-23 24 -29 25 -160 25 l-135 0 0 535 0 536 -25 24 -24 25 -289 0 -289 0 -219 198 c-121 108 -261 234 -312 280 l-92 82 -1150 0 -1151 0 -24 -25z m2215 -470 l0 -336 25 -24 24 -25 376 0 375 0 0 -400 0 -400 -1015 0 -1015 0 -155 310 c-91 182 -163 313 -174 320 -12 6 -115 10 -270 10 l-251 0 0 440 0 440 1040 0 1040 0 0 -335z m450 -25 c113 -101 209 -187 215 -192 5 -4 -107 -8 -248 -8 l-257 0 0 232 0 232 43 -40 c23 -23 134 -123 247 -224z m-2690 -360 l0 -160 -200 0 -200 0 0 160 0 160 200 0 200 0 0 -160z m3440 -320 l0 -480 -120 0 -120 0 0 454 c0 443 0 454 -21 480 l-20 26 140 0 141 0 0 -480z m-2695 -310 c91 -182 163 -313 174 -320 13 -7 468 -10 1430 -10 l1411 0 0 -1160 0 -1160 -518 0 -518 0 4 35 c4 34 -2 42 -119 160 l-123 125 172 0 c170 0 173 0 197 25 l25 24 0 351 0 351 -25 24 c-24 25 -27 25 -197 25 l-172 0 122 123 c108 109 122 128 122 158 0 31 -22 55 -248 281 -226 226 -250 248 -281 248 -30 0 -49 -14 -158 -122 l-123 -122 0 172 c0 170 0 173 -25 197 l-24 25 -351 0 -351 0 -24 -25 c-25 -24 -25 -27 -25 -197 l0 -172 -123 122 c-109 108 -128 122 -158 122 -31 0 -55 -22 -281 -248 -226 -226 -248 -250 -248 -281 0 -30 14 -49 122 -158 l122 -123 -172 0 c-170 0 -173 0 -197 -25 l-25 -24 0 -351 0 -351 25 -24 c24 -25 27 -25 197 -25 l172 0 -123 -125 c-117 -118 -123 -126 -119 -160 l4 -35 -518 0 -518 0 0 1480 0 1480 655 0 655 0 155 -310z m1015 -888 c0 -184 3 -190 87 -228 99 -43 109 -40 239 88 l115 112 166 -167 167 -166 -112 -115 c-128 -130 -131 -140 -88 -239 38 -84 44 -87 228 -87 l158 0 0 -240 0 -240 -158 0 c-184 0 -190 -3 -228 -87 -43 -99 -40 -109 88 -239 l112 -115 -167 -166 -166 -167 -115 112 c-130 128 -140 131 -239 88 -84 -38 -87 -44 -87 -228 l0 -158 -240 0 -240 0 0 158 c0 184 -3 190 -87 228 -99 43 -109 40 -239 -88 l-115 -112 -167 167 -166 166 112 114 c128 130 132 140 88 240 -38 84 -44 87 -228 87 l-158 0 0 240 0 240 158 0 c184 0 190 3 228 87 43 99 40 109 -88 239 l-112 115 167 167 166 166 114 -112 c130 -128 140 -132 240 -88 84 38 87 44 87 228 l0 158 240 0 240 0 0 -158z" fill="currentColor"/>
<path d="M1440 4480 l0 -80 200 0 200 0 0 80 0 80 -200 0 -200 0 0 -80z" fill="currentColor"/>
<path d="M2080 4480 l0 -80 440 0 440 0 0 80 0 80 -440 0 -440 0 0 -80z" fill="currentColor"/>
<path d="M1440 4160 l0 -80 760 0 760 0 0 80 0 80 -760 0 -760 0 0 -80z" fill="currentColor"/>
<path d="M2160 3840 l0 -80 840 0 840 0 0 80 0 80 -840 0 -840 0 0 -80z" fill="currentColor"/>
<path d="M2160 3520 l0 -80 840 0 840 0 0 80 0 80 -840 0 -840 0 0 -80z" fill="currentColor"/>
<path d="M2420 2145 c-176 -38 -351 -175 -429 -337 -94 -194 -94 -382 0 -576 101 -210 331 -352 569 -352 237 0 461 139 568 350 99 198 94 423 -15 610 -139 238 -421 363 -693 305z m255 -160 c238 -62 393 -291 358 -531 -30 -212 -196 -377 -409 -407 -329 -48 -612 266 -529 586 67 258 329 417 580 352z" fill="currentColor"/>
</g>
</svg>