<svg version="1.0" xmlns="http://www.w3.org/2000/svg" width="24" height="24" viewBox="0 0 512.000000 512.000000" preserveAspectRatio="xMidYMid meet">
  <g transform="translate(0.000000,512.000000) scale(0.100000,-0.100000)" fill="currentColor" stroke="none">
    <path d="M363 4570 c-44 -18 -57 -81 -24 -121 l19 -24 308 -5 308 -5 296
    -1186 297 -1187 -156 -4 c-151 -3 -158 -4 -223 -35 -247 -117 -308 -434 -123
    -632 47 -50 150 -111 188 -111 18 0 19 -1 3 -23 -9 -12 -31 -51 -49 -87 -29
    -61 -31 -72 -32 -175 0 -103 2 -114 32 -178 63 -133 183 -225 327 -250 185
    -31 375 72 458 250 58 122 48 286 -23 398 -16 25 -29 48 -29 50 0 3 244 5 543
    5 l544 0 21 23 c40 42 24 105 -32 127 -18 6 -313 10 -874 10 -800 0 -849 1
    -887 19 -115 53 -169 190 -120 309 21 52 90 114 143 130 29 9 385 12 1393 12
    1429 0 1400 -1 1489 45 57 29 115 81 149 134 22 34 101 255 258 723 l226 673
    1 95 c1 88 -2 100 -32 163 -41 82 -112 156 -189 194 l-58 28 -1629 5 -1630 5
    -73 295 c-63 252 -77 298 -99 318 -25 22 -26 22 -362 21 -185 0 -347 -4 -359
    -9z m4130 -803 c80 -34 135 -110 144 -202 5 -48 -12 -103 -212 -706 -120 -360
    -224 -667 -232 -684 -22 -43 -62 -84 -108 -108 l-40 -22 -1156 -3 -1156 -2
    -217 865 c-119 476 -216 867 -216 870 0 3 711 5 1580 5 1304 0 1586 -2 1613
    -13z m-2773 -2552 c223 -113 188 -441 -53 -506 -98 -26 -224 18 -281 99 -42
    59 -54 96 -55 167 -2 199 210 330 389 240z"/>
    <path d="M2049 3211 c-31 -32 -35 -50 -17 -84 25 -48 -19 -46 1101 -47 l1058
    0 24 25 c33 32 33 78 0 110 l-24 25 -1056 0 -1057 0 -29 -29z"/>
    <path d="M2392 2680 c-44 -41 -20 -120 40 -135 13 -3 414 -4 891 -3 l869 3 24
    28 c29 34 31 66 3 101 l-20 26 -893 0 c-884 0 -892 0 -914 -20z"/>
    <path d="M3775 1403 c-147 -21 -274 -115 -338 -252 -56 -119 -48 -283 19 -397
    86 -146 275 -235 440 -207 254 44 413 289 348 538 -37 145 -157 267 -299 303
    -52 14 -132 21 -170 15z m168 -186 c98 -41 164 -155 154 -267 -6 -72 -33 -125
    -90 -177 -132 -122 -343 -80 -423 82 -23 48 -26 64 -22 127 4 84 24 130 75
    181 83 84 191 103 306 54z"/>
  </g>
</svg>