<svg version="1.0" xmlns="http://www.w3.org/2000/svg" width="24" height="24" viewBox="0 0 512.000000 512.000000" preserveAspectRatio="xMidYMid meet">
  <g transform="translate(0.000000,512.000000) scale(0.100000,-0.100000)" fill="currentColor" stroke="none">
    <path d="M1815 4784 c-40 -21 -91 -71 -105 -103 -6 -14 -48 -215 -93 -446
    l-82 -420 -440 -5 c-422 -5 -442 -6 -480 -26 -79 -41 -128 -140 -110 -222 12
    -55 60 -118 107 -141 43 -20 56 -21 441 -21 218 0 398 -3 400 -7 3 -6 -220
    -1271 -288 -1630 l-6 -33 -430 0 c-366 0 -435 -2 -467 -16 -108 -45 -160 -167
    -117 -272 21 -49 52 -81 100 -103 37 -17 72 -19 438 -19 l397 0 -5 -22 c-2
    -13 -37 -187 -76 -388 -78 -406 -80 -435 -33 -503 81 -116 259 -114 339 4 27
    40 38 85 114 471 l84 428 824 0 c535 0 823 -3 823 -10 0 -5 -34 -183 -75 -395
    -82 -422 -82 -428 -31 -505 39 -59 94 -83 177 -78 56 3 76 9 110 33 23 17 51
    47 61 67 11 21 53 207 98 440 44 222 82 413 85 425 l5 22 448 3 449 3 41 29
    c50 34 92 112 92 170 0 50 -28 112 -66 148 -61 57 -68 58 -504 58 l-400 0 5
    23 c3 12 70 360 150 772 80 413 150 774 156 803 l10 52 430 0 c468 0 472 0
    532 58 50 47 70 98 65 164 -6 76 -44 133 -113 168 l-50 25 -393 3 -392 3 5 22
    c3 12 37 186 76 387 50 256 69 379 66 413 -13 143 -184 228 -311 153 -79 -46
    -85 -65 -176 -521 -45 -225 -83 -418 -86 -427 -5 -17 -53 -18 -830 -18 -781 0
    -825 1 -820 18 3 9 37 184 77 387 50 261 70 384 66 418 -9 100 -99 177 -206
    177 -31 0 -69 -7 -86 -16z m1725 -1411 c0 -5 -72 -375 -159 -823 l-158 -815
    -826 -3 c-782 -2 -825 -1 -821 15 7 30 314 1622 314 1628 0 3 371 5 825 5 454
    0 825 -3 825 -7z"/>
  </g>
</svg>