<svg version="1.0" xmlns="http://www.w3.org/2000/svg" width="24" height="24" viewBox="0 0 512.000000 512.000000" preserveAspectRatio="xMidYMid meet">
  <g transform="translate(0.000000,512.000000) scale(0.100000,-0.100000)" fill="currentColor" stroke="none">
    <path d="M3910 4970 l0 -150 347 0 348 0 -445 -446 c-245 -245 -570 -567 -723
    -716 l-278 -272 -599 599 -599 599 -833 -829 c-458 -456 -889 -884 -957 -951
    l-124 -122 98 -106 c53 -58 103 -106 109 -106 6 0 268 257 581 571 314 313
    695 692 848 841 l278 272 599 -599 599 -599 828 824 828 825 3 -342 2 -343
    150 0 150 0 0 600 0 600 -605 0 -605 0 0 -150z"/>
    <path d="M3910 1810 l0 -1510 -150 0 -150 0 0 910 0 910 -450 0 -450 0 0 -910
    0 -910 -150 0 -150 0 0 1210 0 1210 -450 0 -450 0 0 -1210 0 -1210 -150 0
    -150 0 0 760 0 760 -450 0 -450 0 0 -760 0 -760 -155 0 -155 0 0 -150 0 -150
    2560 0 2560 0 0 150 0 150 -155 0 -155 0 0 1510 0 1510 -450 0 -450 0 0 -1510z
    m600 -150 l0 -1360 -150 0 -150 0 0 1360 0 1360 150 0 150 0 0 -1360z m-2400
    -300 l0 -1060 -150 0 -150 0 0 1060 0 1060 150 0 150 0 0 -1060z m1200 -300
    l0 -760 -150 0 -150 0 0 760 0 760 150 0 150 0 0 -760z m-2400 -150 l0 -610
    -150 0 -150 0 0 610 0 610 150 0 150 0 0 -610z"/>
  </g>
</svg>